<svg width="163" height="163" viewBox="0 0 163 163" fill="none" xmlns="http://www.w3.org/2000/svg">
<rect width="163" height="163" rx="81.5" fill="white"/>
<path d="M65.8056 42C59.9398 42 55.0745 46.0039 53.6816 51.4141C53.5247 51.4141 53.4069 51.375 53.25 51.375C46.3248 51.375 40.6944 56.9805 40.6944 63.875C40.6944 64.8125 40.8122 65.7305 41.028 66.6094C35.2995 68.9531 31.2778 74.5391 31.2778 81.0625C31.2778 83.5234 31.9056 85.8086 32.9061 87.8789C28.1977 90.5742 25 95.5742 25 101.375C25 107.879 29.0021 113.465 34.6913 115.809C34.5148 116.707 34.4167 117.625 34.4167 118.562C34.4167 126.336 40.7337 132.625 48.5417 132.625C49.346 132.625 50.1307 132.527 50.8958 132.391C52.7792 137.957 57.9976 142 64.2361 142C72.0441 142 78.3611 135.711 78.3611 127.938V54.5C78.3611 47.6055 72.7307 42 65.8056 42ZM138 101.375C138 95.5742 134.802 90.5742 130.094 87.8789C131.114 85.8086 131.722 83.5234 131.722 81.0625C131.722 74.5391 127.701 68.9531 121.972 66.6094C122.168 65.7305 122.306 64.8125 122.306 63.875C122.306 56.9805 116.675 51.375 109.75 51.375C109.593 51.375 109.456 51.4141 109.318 51.4141C107.926 46.0039 103.06 42 97.1944 42C90.2693 42 84.6389 47.5859 84.6389 54.5V127.938C84.6389 135.711 90.9559 142 98.7639 142C105.002 142 110.221 137.957 112.104 132.391C112.869 132.527 113.654 132.625 114.458 132.625C122.266 132.625 128.583 126.336 128.583 118.562C128.583 117.625 128.485 116.707 128.309 115.809C133.998 113.465 138 107.879 138 101.375Z" fill="#43004F"/>
<path d="M24.1188 39.9404L34.1889 55.0709C34.6434 55.7539 35.3509 56.2247 36.1598 56.3872L38.22 56.801C33.8354 60.5611 30.6354 65.7554 29.4092 71.859C26.4923 86.3788 35.8957 100.508 50.4179 103.425C64.9402 106.343 79.0707 96.9416 81.9876 82.4218C84.9046 67.9021 75.5012 53.7732 60.9789 50.8557C54.8743 49.6293 48.8462 50.5744 43.6839 53.1659L44.0977 51.1061C44.2602 50.2973 44.0991 49.463 43.6446 48.78L33.5746 33.6495C32.6251 32.223 30.704 31.8371 29.2899 32.7888L24.9946 35.6464C23.5679 36.5956 23.182 38.5164 24.1188 39.9404ZM58.948 60.9652C67.8838 62.7604 73.6738 71.4436 71.8764 80.3905C70.0816 89.3248 61.3974 95.1133 52.4489 93.3156C43.5131 91.5205 37.7231 82.8373 39.5205 73.8903C41.3153 64.9561 49.9995 59.1675 58.948 60.9652Z" fill="#A200FF"/>
<path d="M139.588 39.9404L129.518 55.0709C129.063 55.7539 128.356 56.2247 127.547 56.3872L125.487 56.801C129.871 60.5611 133.071 65.7554 134.297 71.859C137.214 86.3788 127.811 100.508 113.289 103.425C98.7664 106.343 84.6359 96.9416 81.7189 82.4218C78.802 67.9021 88.2054 53.7732 102.728 50.8557C108.832 49.6293 114.86 50.5744 120.023 53.1659L119.609 51.1061C119.446 50.2973 119.607 49.463 120.062 48.78L130.132 33.6495C131.081 32.223 133.003 31.8371 134.417 32.7888L138.712 35.6464C140.139 36.5956 140.525 38.5164 139.588 39.9404ZM104.759 60.9652C95.8228 62.7604 90.0327 71.4436 91.8301 80.3905C93.625 89.3248 102.309 95.1133 111.258 93.3156C120.193 91.5205 125.983 82.8373 124.186 73.8903C122.391 64.9561 113.707 59.1675 104.759 60.9652Z" fill="#A200FF"/>
</svg>
